name C:\Users\u0101727\Documents\MyRepositories\upper-imu-dc\Results\main_tracking\Case_10\FLX01_orientations_groundFrame.mot
datacolumns 13
datarows 18
range 3.51000000 3.68000000
endheader 
time	radius_imu_[0][0]	radius_imu_[0][1]	radius_imu_[0][2]	radius_imu_[1][0]	radius_imu_[1][1]	radius_imu_[1][2]	radius_imu_[2][0]	radius_imu_[2][1]	radius_imu_[2][2]	radius_imu_x	radius_imu_y	radius_imu_z	
          3.51000000	          0.97053731	         -0.08053649	         -0.22709293	         -0.03263673	         -0.97774012	          0.20726576	         -0.23873033	         -0.19374758	         -0.95156172	         -2.92712608	         -0.22909158	          0.08279166	
          3.52000000	          0.97100500	         -0.08155426	         -0.22471801	         -0.03410833	         -0.97765565	          0.20742721	         -0.23661341	         -0.19374810	         -0.95209021	         -2.92707962	         -0.22665364	          0.08379288	
          3.53000000	          0.97132310	         -0.08256459	         -0.22296752	         -0.03540827	         -0.97754452	          0.20773293	         -0.23511207	         -0.19388090	         -0.95243504	         -2.92684850	         -0.22485757	          0.08479835	
          3.54000000	          0.97149665	         -0.08355352	         -0.22184020	         -0.03652590	         -0.97740969	          0.20817338	         -0.23422238	         -0.19413683	         -0.95260210	         -2.92644367	         -0.22370129	          0.08579383	
          3.55000000	          0.97153647	         -0.08451080	         -0.22130254	         -0.03746117	         -0.97725442	          0.20873537	         -0.23390928	         -0.19450377	         -0.95260418	         -2.92588114	         -0.22314993	          0.08676834	
          3.56000000	          0.97145860	         -0.08543033	         -0.22129132	         -0.03822439	         -0.97708206	          0.20940283	         -0.23410913	         -0.19496746	         -0.95246029	         -2.92518098	         -0.22313842	          0.08771462	
          3.57000000	          0.97128156	         -0.08630988	         -0.22172674	         -0.03883321	         -0.97689578	          0.21015857	         -0.23474267	         -0.19551278	         -0.95219254	         -2.92436508	         -0.22358493	          0.08862906	
          3.58000000	          0.97102262	         -0.08715023	         -0.22253068	         -0.03930762	         -0.97669839	          0.21098618	         -0.23573285	         -0.19612520	         -0.95182190	         -2.92345419	         -0.22440947	          0.08951114	
          3.59000000	          0.97069480	         -0.08795369	         -0.22364204	         -0.03966512	         -0.97649227	          0.21187148	         -0.23701960	         -0.19679175	         -0.95136466	         -2.92246589	         -0.22554956	          0.09036225	
          3.60000000	          0.97030528	         -0.08872241	         -0.22502445	         -0.03991734	         -0.97627943	          0.21280290	         -0.23856713	         -0.19750140	         -0.95083065	         -2.92141367	         -0.22696813	          0.09118406	
          3.61000000	          0.96985561	         -0.08945708	         -0.22666611	         -0.04006877	         -0.97606164	          0.21377129	         -0.24036345	         -0.19824505	         -0.95022330	         -2.92030722	         -0.22865333	          0.09197728	
          3.62000000	          0.96934332	         -0.09015654	         -0.22857235	         -0.04011795	         -0.97584050	          0.21476935	         -0.24241302	         -0.19901539	         -0.94954137	         -2.91915326	         -0.23061096	          0.09274105	
          3.63000000	          0.96876543	         -0.09081789	         -0.23075019	         -0.04006111	         -0.97561752	          0.21579056	         -0.24472157	         -0.19980633	         -0.94878279	         -2.91795760	         -0.23284861	          0.09347282	
          3.64000000	          0.96812380	         -0.09143701	         -0.23318574	         -0.03989791	         -0.97539434	          0.21682723	         -0.24727408	         -0.20061197	         -0.94795061	         -2.91672830	         -0.23535246	          0.09416830	
          3.65000000	          0.96743123	         -0.09200888	         -0.23582022	         -0.03963778	         -0.97517294	          0.21786826	         -0.25001132	         -0.20142517	         -0.94705979	         -2.91547963	         -0.23806251	          0.09482117	
          3.66000000	          0.96671643	         -0.09252813	         -0.23853278	         -0.03930484	         -0.97495592	          0.21889741	         -0.25281311	         -0.20223623	         -0.94614272	         -2.91423516	         -0.24085474	          0.09542314	
          3.67000000	          0.96602594	         -0.09298976	         -0.24113643	         -0.03894024	         -0.97474654	          0.21989281	         -0.25549468	         -0.20303225	         -0.94525149	         -2.91302889	         -0.24353667	          0.09596443	
          3.68000000	          0.96542186	         -0.09339042	         -0.24339033	         -0.03860074	         -0.97454852	          0.22082837	         -0.25781894	         -0.20379749	         -0.94445539	         -2.91190344	         -0.24585977	          0.09643529	
